<svg id="SvgjsSvg1001" width="288" height="288" xmlns="http://www.w3.org/2000/svg" version="1.1" xmlns:xlink="http://www.w3.org/1999/xlink" xmlns:svgjs="http://svgjs.com/svgjs"><circle id="SvgjsCircle1015" r="144" cx="144" cy="144" transform="matrix(0.01,0,0,0.01,142.56,142.56)" fill="#87ddfd"></circle><defs id="SvgjsDefs1002"></defs><g id="SvgjsG1008" transform="matrix(0.9999999999999999,0,0,0.9999999999999999,2.842170943040401e-14,2.842170943040401e-14)"><svg xmlns="http://www.w3.org/2000/svg" version="1.0" viewBox="0 0 1024 1024" width="288" height="288"><g transform="matrix(.1 0 0 -.1 0 1024)"><path d="M6109 9769 c-73 -73 -129 -309 -194 -819 -31 -243 -106 -793 -109-796 -1 -1 -57 5 -126 13 -69 7 -228 15 -355 17 l-230 4 -160 81 c-208 105
-448 242 -607 347 -253 167 -422 318 -681 609 -163 183 -213 225 -263 225 -88
0 -119 -64 -148 -311 -55 -461 -7 -921 140 -1341 39 -111 149 -349 184 -399
12 -16 21 -32 19 -33 -15 -13 -304 -223 -375 -273 -112 -78 -200 -156 -221
-197 -31 -58 -22 -157 40 -411 63 -255 77 -336 76 -440 0 -117 -10 -145 -81
-237 -129 -164 -312 -309 -528 -418 l-64 -32 100 -64 c94 -61 185 -104 222
-104 9 0 -86 -51 -213 -114 -556 -273 -899 -472 -1015 -588 -29 -29 -32 -36
-28 -78 6 -60 68 -188 156 -321 361 -547 783 -778 1457 -796 105 -2 223 -1
263 4 85 11 83 22 20 -122 -83 -191 -183 -359 -268 -449 -129 -139 -412 -324
-637 -417 -45 -19 -83 -37 -83 -41 0 -12 89 -54 165 -77 39 -12 105 -25 148
-28 l78 -6 -44 -46 c-112 -115 -224 -311 -271 -474 -27 -91 -50 -216 -61 -327
l-7 -65 84 81 c145 141 255 222 394 292 l62 31 6 -59 c25 -221 144 -437 360
-654 118 -119 296 -272 266 -229 -8 11 -52 68 -96 124 -298 380 -433 710 -395
960 7 44 15 88 18 96 5 13 1 15 -23 9 -52 -13 -207 -94 -318 -166 -60 -39
-110 -69 -112 -68 -8 9 108 229 149 284 26 34 97 115 158 180 160 171 217 239
194 230 -44 -18 -195 -46 -280 -52 l-90 -6 69 44 c125 79 290 196 349 249 32
28 59 50 61 48 2 -2 10 -18 19 -35 44 -86 184 -199 309 -251 132 -54 186 -65
341 -70 227 -8 370 22 559 119 138 70 203 124 394 323 190 199 308 305 512
459 134 100 163 126 145 126 -25 0 -173 -57 -247 -95 -182 -94 -291 -180 -536
-420 -188 -184 -247 -233 -340 -280 -265 -133 -580 -137 -835 -10 -82 40 -219
148 -170 132 153 -47 171 -50 315 -50 129 0 155 3 234 27 375 114 656 390 895
881 164 336 277 653 400 1130 81 313 80 310 122 308 135 -6 187 -5 208 6 l23
13 -21 22 c-38 40 -175 115 -271 147 -127 43 -253 46 -344 8 -108 -44 -100
-79 23 -105 123 -25 125 -27 90 -140 -125 -413 -315 -698 -619 -925 -495 -371
-928 -532 -1430 -531 -203 0 -328 20 -425 70 -66 33 -88 53 -104 95 -19 50 -5
71 105 153 249 185 524 543 524 681 0 55 -19 92 -70 135 -85 74 -243 130 -458
164 -85 13 -143 15 -277 11 -93 -4 -181 -9 -195 -12 -14 -4 187 101 445 232
259 132 515 265 570 297 322 188 508 350 585 511 36 75 67 189 58 215 -2 6
-25 -21 -52 -60 -108 -157 -333 -365 -527 -485 -125 -78 -316 -175 -343 -175
-25 0 -115 41 -157 71 l-29 20 58 30 c121 64 248 177 372 330 42 53 85 110 96
127 23 40 63 56 119 48 63 -8 100 -30 172 -99 l63 -60 0 54 c0 69 -33 140 -91
196 -76 73 -150 91 -224 53 -22 -11 -41 -20 -42 -20 -2 0 -3 24 -3 53 0 28
-16 140 -35 247 -20 107 -39 239 -42 292 l-6 97 27 11 c52 19 114 12 180 -22
46 -24 101 -72 221 -193 210 -211 269 -242 372 -196 106 49 203 182 333 457
47 98 144 297 217 441 73 144 133 265 133 270 0 4 -37 -30 -81 -76 -147 -152
-295 -372 -420 -623 -114 -228 -181 -308 -259 -308 -53 0 -84 33 -170 182
-103 178 -161 258 -251 343 -39 37 -67 70 -63 74 33 29 340 247 489 346 408
273 748 448 1033 531 196 57 294 68 599 68 155 1 284 -2 287 -5 3 -3 -6 -80
-21 -171 -30 -189 -28 -198 37 -198 49 0 95 38 110 88 28 97 126 749 180 1187
56 460 100 635 159 635 49 0 186 -146 326 -345 284 -406 529 -898 655 -1315
122 -402 182 -933 153 -1340 l-6 -92 -32 93 c-206 604 -590 1096 -896 1149
-116 20 -120 12 -27 -49 91 -60 266 -229 342 -329 202 -266 498 -808 600
-1097 6 -16 16 -5 62 65 91 139 162 300 218 494 l23 79 60 -89 c148 -220 306
-517 396 -744 69 -175 69 -167 0 -124 -203 126 -327 177 -348 144 -4 -6 41
-106 98 -223 270 -545 422 -1061 536 -1812 33 -220 64 -499 81 -730 15 -197
26 -475 20 -475 -3 0 -54 66 -113 146 -116 154 -173 209 -272 255 -91 44 -91
44 -98 -62 -24 -332 -186 -702 -456 -1037 -165 -205 -346 -379 -676 -651 -202
-167 -205 -170 -96 -116 486 242 932 626 1161 1000 109 177 209 434 210 539 1
31 2 30 80 -52 99 -103 205 -261 308 -460 93 -179 81 -190 108 108 21 223 23
673 6 870 -83 902 -294 1827 -521 2277 -22 46 -41 85 -41 89 0 6 21 -11 185
-155 l107 -94 -7 59 c-57 498 -193 829 -580 1414 l-123 186 -22 119 c-70 393
-197 753 -425 1204 -303 600 -756 1219 -969 1326 -63 32 -128 33 -157 4z
m-2500 -764 c314 -415 525 -579 1048 -816 90 -40 160 -76 155 -79 -4 -4 -52
-24 -107 -44 -301 -114 -598 -281 -875 -494 l-105 -81 -49 97 c-152 301 -247
591 -293 892 -26 172 -25 583 1 699 l20 84 34 -39 c19 -21 96 -120 171 -219z
m-1399 -4560 c229 -27 380 -62 501 -118 41 -18 81 -42 89 -52 17 -21 29 -23
-115 19 -188 56 -460 86 -779 86 -139 1 -197 4 -215 14 -30 17 -20 23 68 47
84 23 279 25 451 4z m2706 -412 c-124 -361 -336 -773 -495 -958 -112 -130
-276 -248 -424 -306 -99 -38 -259 -63 -351 -55 -161 15 -254 102 -232 220 4
19 15 45 25 57 l17 22 27 -46 c32 -54 97 -112 144 -128 46 -15 51 -6 18 33
-78 92 -73 179 21 378 l46 96 225 112 c154 77 223 107 218 95 -23 -57 -105
-373 -105 -404 0 -16 43 45 124 176 202 327 254 387 495 570 97 73 194 149
216 169 22 19 43 35 47 36 4 0 -4 -30 -16 -67z m-2583 -385 c43 -19 83 -58 58
-58 -12 0 -161 80 -161 87 0 8 49 -6 103 -29z" fill="#ff5e00" class="svgShape color000000-1 selectable"></path><path d="M4832 6959c-82-13-157-41-229-88-123-79-181-197-139-280 30-58 103-65 272-26 334 76 597 57 1193-85 184-43 655-179 683-196 6-4 9-2 7 3-6 16-232 192-337 262-254 171-671 340-972 392-132 24-383 33-478 18zM4909 6147c-83-25-159-66-201-108-27-27-37-59-19-59 6 0-8-35-29-77-50-100-89-237-96-333-2-41-7-95-9-120-7-65 7-43 65 105 96 246 197 397 297 446 42 21 62 24 168 24 188-1 267-33 644-263 73-45 138-82 143-82 5 0-5 26-23 58-85 150-200 257-362 337-140 69-209 86-367 91-120 4-144 2-211-19zM6415 5784c-49-7-130-25-180-39-90-26-262-101-253-111 3-2 34 0 69 5 225 36 550 43 748 17 128-17 331-65 331-78 0-4-8-8-18-8-51 0-226-73-375-156l-102-58 109-17c323-52 629-215 861-461 73-77 192-234 184-243-2-2-56 12-120 30-240 69-489 86-489 32 0-7 30-38 68-68 105-85 350-333 442-449 78-98 204-280 198-285-2-2-41 5-88 15-344 74-834 38-1085-80l-70-33 72-8c191-22 385-102 561-234 57-42 173-145 259-228 163-159 165-160 113-35-79 192-269 387-486 499l-75 39 68 0c329 0 783-87 975-186 16-9 32-13 35-10 7 7-54 187-93 273-78 171-205 358-343 506-40 42-71 77-68 77 25 0 241-85 356-141 79-38 145-69 147-69 6 0-20 77-51 152-86 204-212 388-379 553-133 132-242 216-428 327l-138 82 77 23c43 13 152 38 243 56l164 34-64 36c-360 201-822 296-1175 241z" fill="#ff5e00" class="svgShape color000000-2 selectable"></path><path d="M5280 5694 c-194 -33 -512 -165 -673 -280 -43 -31 -77 -57 -75 -59 5
-5 242 41 382 74 71 17 222 58 335 90 213 61 368 96 481 109 l65 8 -60 23
c-133 51 -288 63 -455 35z" fill="#ff5e00" class="svgShape color000000-3 selectable"></path></g></svg></g></svg>